{"glyphs":{"0":{"ha":833,"x_min":0,"x_max":0,"o":"m 417 708 b 90 347 207 708 90 579 b 417 -14 90 114 206 -14 b 743 347 626 -14 743 115 b 417 708 743 581 628 708 z m 417 118 b 236 347 299 118 236 197 b 417 576 236 497 299 576 b 597 347 535 576 597 497 b 417 118 597 199 535 118 z "},"1":{"ha":764,"x_min":0,"x_max":0,"o":"m 313 125 l 104 125 l 104 0 l 660 0 l 660 125 l 451 125 l 451 694 l 118 694 l 118 569 l 313 569 z "},"2":{"ha":764,"x_min":0,"x_max":0,"o":"m 243 479 b 375 576 243 533 289 576 b 507 493 461 576 507 547 b 365 386 507 453 475 429 b 83 97 185 315 83 211 l 83 0 l 667 0 l 667 125 l 243 125 b 418 267 243 178 314 226 b 653 493 592 335 653 393 b 375 708 653 625 546 708 b 97 479 196 708 97 618 z "},"3":{"ha":764,"x_min":0,"x_max":0,"o":"m 382 118 b 236 201 286 118 236 147 l 90 201 b 382 -14 90 63 193 -14 b 674 201 569 -14 674 63 b 579 351 674 269 642 321 b 653 493 628 383 653 431 b 375 708 653 632 554 708 b 97 493 196 708 97 632 l 243 493 b 375 576 243 547 289 576 b 507 493 461 576 507 547 b 382 410 507 439 464 410 l 278 410 l 278 285 l 382 285 b 528 201 478 285 528 256 b 382 118 528 147 476 118 z "},"4":{"ha":765,"x_min":0,"x_max":0,"o":"m 431 0 l 569 0 l 569 139 l 696 139 l 696 264 l 569 264 l 569 694 l 444 694 l 42 250 l 42 139 l 431 139 z m 218 264 l 431 499 l 431 264 z "},"5":{"ha":764,"x_min":0,"x_max":0,"o":"m 104 306 l 382 306 b 528 213 478 306 528 274 b 382 118 528 151 476 118 b 236 201 286 118 236 147 l 90 201 b 382 -14 90 63 193 -14 b 674 213 569 -14 674 67 b 382 431 674 353 569 431 l 243 431 l 243 569 l 625 569 l 625 694 l 104 694 z "},"6":{"ha":764,"x_min":0,"x_max":0,"o":"m 217 386 b 390 576 226 514 282 576 b 521 493 468 576 521 543 l 667 493 b 390 708 667 624 557 708 b 69 347 188 708 69 576 b 396 -14 69 115 182 -14 b 694 215 579 -14 694 75 b 410 438 694 350 582 438 b 217 386 331 438 265 414 z m 397 118 b 224 257 297 118 243 163 b 385 313 264 285 319 313 b 549 215 492 313 549 278 b 397 118 549 157 489 118 z "},"7":{"ha":715,"x_min":0,"x_max":0,"o":"m 354 0 l 632 583 l 632 694 l 76 694 l 76 569 l 472 569 l 201 0 z "},"8":{"ha":764,"x_min":0,"x_max":0,"o":"m 382 -14 b 674 201 569 -14 674 63 b 569 351 674 267 636 318 b 653 493 622 385 653 433 b 382 708 653 632 557 708 b 111 493 208 708 111 632 b 194 351 111 433 142 385 b 90 201 129 318 90 267 b 382 -14 90 63 193 -14 z m 236 201 b 382 285 236 256 288 285 b 528 201 478 285 528 256 b 382 118 528 147 476 118 b 236 201 286 118 236 147 z m 382 576 b 507 493 464 576 507 547 b 382 410 507 439 464 410 b 257 493 300 410 257 439 b 382 576 257 547 300 576 z "},"9":{"ha":764,"x_min":0,"x_max":0,"o":"m 69 479 b 354 257 69 344 182 257 b 547 308 433 257 499 281 b 375 118 538 181 482 118 b 215 201 296 118 215 151 l 69 201 b 374 -14 69 71 207 -14 b 694 347 576 -14 694 118 b 368 708 694 579 582 708 b 69 479 185 708 69 619 z m 379 382 b 215 479 272 382 215 417 b 368 576 215 538 275 576 b 540 438 467 576 521 532 b 379 382 500 410 444 382 z "},"\u0000":{"ha":0,"x_min":0,"x_max":0,"o":""},"\r":{"ha":347,"x_min":0,"x_max":0,"o":""}," ":{"ha":347,"x_min":0,"x_max":0,"o":""},"A":{"ha":861,"x_min":0,"x_max":0,"o":"m 189 0 l 246 139 l 613 139 l 669 0 l 819 0 l 535 694 l 326 694 l 42 0 z m 297 264 l 422 569 l 436 569 l 561 264 z "},"B":{"ha":875,"x_min":0,"x_max":0,"o":"m 104 0 l 590 0 b 799 208 715 0 799 83 b 708 356 799 275 765 326 b 771 486 747 386 771 432 b 563 694 771 611 688 694 l 104 694 z m 243 285 l 590 285 b 660 215 632 285 660 257 l 660 194 b 590 125 660 153 632 125 l 243 125 z m 243 410 l 243 569 l 563 569 b 632 500 604 569 632 542 l 632 479 b 563 410 632 438 604 410 z "},"C":{"ha":857,"x_min":0,"x_max":0,"o":"m 431 118 b 215 347 306 118 215 215 b 431 576 215 479 306 576 b 639 410 535 576 615 510 l 788 410 b 431 708 760 586 618 708 b 69 347 222 708 69 556 b 431 -14 69 139 222 -14 b 788 285 618 -14 760 108 l 639 285 b 431 118 615 186 535 118 z "},"D":{"ha":882,"x_min":0,"x_max":0,"o":"m 451 694 l 104 694 l 104 0 l 451 0 b 813 347 660 0 813 147 b 451 694 813 549 660 694 z m 243 569 l 451 569 b 667 347 576 569 667 475 b 451 125 667 218 576 125 l 243 125 z "},"E":{"ha":868,"x_min":0,"x_max":0,"o":"m 785 569 l 785 694 l 104 694 l 104 0 l 785 0 l 785 125 l 243 125 l 243 285 l 646 285 l 646 410 l 243 410 l 243 569 z "},"F":{"ha":840,"x_min":0,"x_max":0,"o":"m 243 410 l 243 569 l 771 569 l 771 694 l 104 694 l 104 0 l 243 0 l 243 285 l 632 285 l 632 410 z "},"G":{"ha":861,"x_min":0,"x_max":0,"o":"m 638 278 b 431 118 611 182 532 118 b 215 347 306 118 215 215 b 431 576 215 479 306 576 b 590 507 496 576 551 550 l 689 607 b 431 708 625 671 535 708 b 69 347 222 708 69 556 b 431 -14 69 139 222 -14 b 792 347 639 -14 792 139 b 788 403 792 367 790 385 l 431 403 l 431 278 z "},"H":{"ha":903,"x_min":0,"x_max":0,"o":"m 243 694 l 104 694 l 104 0 l 243 0 l 243 285 l 660 285 l 660 0 l 799 0 l 799 694 l 660 694 l 660 410 l 243 410 z "},"I":{"ha":347,"x_min":0,"x_max":0,"o":"m 243 0 l 243 694 l 104 694 l 104 0 z "},"J":{"ha":736,"x_min":0,"x_max":0,"o":"m 493 264 b 354 118 493 181 433 118 b 215 264 275 118 215 181 l 76 264 b 354 -14 76 104 194 -14 b 632 264 514 -14 632 104 l 632 694 l 493 694 z "},"K":{"ha":861,"x_min":0,"x_max":0,"o":"m 644 0 l 814 0 l 490 404 l 814 694 l 617 694 l 243 358 l 243 694 l 104 694 l 104 0 l 243 0 l 243 182 l 392 315 z "},"L":{"ha":715,"x_min":0,"x_max":0,"o":"m 104 0 l 660 0 l 660 125 l 243 125 l 243 694 l 104 694 z "},"M":{"ha":903,"x_min":0,"x_max":0,"o":"m 229 694 l 104 694 l 104 0 l 243 0 l 243 486 l 246 486 b 285 408 246 486 260 442 l 382 278 l 521 278 l 618 408 b 657 486 643 442 657 486 l 660 486 l 660 0 l 799 0 l 799 694 l 674 694 l 457 403 l 447 403 z "},"N":{"ha":903,"x_min":0,"x_max":0,"o":"m 674 0 l 799 0 l 799 694 l 660 694 l 660 215 l 229 694 l 104 694 l 104 0 l 243 0 l 243 479 z "},"O":{"ha":861,"x_min":0,"x_max":0,"o":"m 431 708 b 69 347 222 708 69 556 b 431 -14 69 139 222 -14 b 792 347 639 -14 792 139 b 431 708 792 556 639 708 z m 431 118 b 215 347 306 118 215 215 b 431 576 215 479 306 576 b 646 347 556 576 646 479 b 431 118 646 215 556 118 z "},"P":{"ha":875,"x_min":0,"x_max":0,"o":"m 243 285 l 604 285 b 813 486 729 285 813 367 b 604 694 813 611 729 694 l 104 694 l 104 0 l 243 0 z m 243 569 l 604 569 b 674 500 646 569 674 542 l 674 479 b 604 410 674 438 646 410 l 243 410 z "},"Q":{"ha":861,"x_min":0,"x_max":0,"o":"m 724 -21 l 799 54 l 724 129 b 792 347 767 188 792 263 b 431 708 792 556 639 708 b 69 347 222 708 69 556 b 431 -14 69 139 222 -14 b 649 54 515 -14 589 11 z m 550 153 b 431 118 517 131 475 118 b 215 347 306 118 215 215 b 431 576 215 479 306 576 b 646 347 556 576 646 479 b 619 232 646 304 636 265 l 538 315 l 463 240 z "},"R":{"ha":889,"x_min":0,"x_max":0,"o":"m 104 0 l 243 0 l 243 285 l 479 285 l 656 0 l 813 0 l 656 253 b 631 286 650 263 640 275 b 813 486 740 297 813 375 b 604 694 813 611 729 694 l 104 694 z m 243 410 l 243 569 l 604 569 b 674 500 646 569 674 542 l 674 479 b 604 410 674 438 646 410 z "},"S":{"ha":806,"x_min":0,"x_max":0,"o":"m 403 111 b 208 208 286 111 208 150 l 69 208 b 403 -14 69 75 203 -14 b 736 213 619 -14 736 65 b 410 417 736 354 639 417 b 222 490 278 417 222 438 b 403 583 222 551 285 583 b 583 486 511 583 583 544 l 722 486 b 403 708 722 619 594 708 b 83 490 194 708 83 632 b 397 292 83 350 178 292 b 597 213 536 292 597 268 b 403 111 597 147 529 111 z "},"T":{"ha":806,"x_min":0,"x_max":0,"o":"m 56 569 l 333 569 l 333 0 l 472 0 l 472 569 l 750 569 l 750 694 l 56 694 z "},"U":{"ha":875,"x_min":0,"x_max":0,"o":"m 438 118 b 243 333 325 118 243 208 l 243 694 l 104 694 l 104 333 b 438 -14 104 133 246 -14 b 771 333 629 -14 771 133 l 771 694 l 632 694 l 632 333 b 438 118 632 208 550 118 z "},"V":{"ha":861,"x_min":0,"x_max":0,"o":"m 42 694 l 326 0 l 535 0 l 819 694 l 672 694 l 439 125 l 425 125 l 192 694 z "},"W":{"ha":931,"x_min":0,"x_max":0,"o":"m 192 694 l 56 694 l 139 0 l 285 0 l 408 279 b 464 431 451 375 464 431 l 467 431 b 522 279 467 431 479 375 l 646 0 l 792 0 l 875 694 l 739 694 l 679 181 b 625 349 678 181 663 265 l 535 556 l 396 556 l 304 349 b 253 181 268 264 253 181 l 251 181 z "},"X":{"ha":835,"x_min":0,"x_max":0,"o":"m 504 363 l 786 694 l 613 694 l 419 463 l 226 694 l 49 694 l 326 360 l 28 0 l 197 0 l 410 260 l 625 0 l 807 0 z "},"Y":{"ha":778,"x_min":0,"x_max":0,"o":"m 319 0 l 458 0 l 458 243 l 750 694 l 589 694 l 454 486 b 390 361 410 417 390 361 l 388 361 b 324 486 388 361 368 417 l 188 694 l 28 694 l 319 243 z "},"Z":{"ha":847,"x_min":0,"x_max":0,"o":"m 97 569 l 547 569 l 83 111 l 83 0 l 764 0 l 764 125 l 285 125 l 750 583 l 750 694 l 97 694 z "},"a":{"ha":861,"x_min":0,"x_max":0,"o":"m 189 0 l 246 139 l 613 139 l 669 0 l 819 0 l 535 694 l 326 694 l 42 0 z m 297 264 l 422 569 l 436 569 l 561 264 z "},"b":{"ha":875,"x_min":0,"x_max":0,"o":"m 104 0 l 590 0 b 799 208 715 0 799 83 b 708 356 799 275 765 326 b 771 486 747 386 771 432 b 563 694 771 611 688 694 l 104 694 z m 243 285 l 590 285 b 660 215 632 285 660 257 l 660 194 b 590 125 660 153 632 125 l 243 125 z m 243 410 l 243 569 l 563 569 b 632 500 604 569 632 542 l 632 479 b 563 410 632 438 604 410 z "},"c":{"ha":857,"x_min":0,"x_max":0,"o":"m 431 118 b 215 347 306 118 215 215 b 431 576 215 479 306 576 b 639 410 535 576 615 510 l 788 410 b 431 708 760 586 618 708 b 69 347 222 708 69 556 b 431 -14 69 139 222 -14 b 788 285 618 -14 760 108 l 639 285 b 431 118 615 186 535 118 z "},"d":{"ha":882,"x_min":0,"x_max":0,"o":"m 451 694 l 104 694 l 104 0 l 451 0 b 813 347 660 0 813 147 b 451 694 813 549 660 694 z m 243 569 l 451 569 b 667 347 576 569 667 475 b 451 125 667 218 576 125 l 243 125 z "},"e":{"ha":868,"x_min":0,"x_max":0,"o":"m 785 569 l 785 694 l 104 694 l 104 0 l 785 0 l 785 125 l 243 125 l 243 285 l 646 285 l 646 410 l 243 410 l 243 569 z "},"f":{"ha":840,"x_min":0,"x_max":0,"o":"m 243 410 l 243 569 l 771 569 l 771 694 l 104 694 l 104 0 l 243 0 l 243 285 l 632 285 l 632 410 z "},"g":{"ha":861,"x_min":0,"x_max":0,"o":"m 638 278 b 431 118 611 182 532 118 b 215 347 306 118 215 215 b 431 576 215 479 306 576 b 590 507 496 576 551 550 l 689 607 b 431 708 625 671 535 708 b 69 347 222 708 69 556 b 431 -14 69 139 222 -14 b 792 347 639 -14 792 139 b 788 403 792 367 790 385 l 431 403 l 431 278 z "},"h":{"ha":903,"x_min":0,"x_max":0,"o":"m 243 694 l 104 694 l 104 0 l 243 0 l 243 285 l 660 285 l 660 0 l 799 0 l 799 694 l 660 694 l 660 410 l 243 410 z "},"i":{"ha":347,"x_min":0,"x_max":0,"o":"m 243 0 l 243 694 l 104 694 l 104 0 z "},"j":{"ha":750,"x_min":0,"x_max":0,"o":"m 507 264 b 368 118 507 181 447 118 b 229 264 289 118 229 181 l 90 264 b 368 -14 90 104 208 -14 b 646 264 528 -14 646 104 l 646 694 l 507 694 z "},"k":{"ha":861,"x_min":0,"x_max":0,"o":"m 644 0 l 814 0 l 490 404 l 814 694 l 617 694 l 243 358 l 243 694 l 104 694 l 104 0 l 243 0 l 243 182 l 392 315 z "},"l":{"ha":715,"x_min":0,"x_max":0,"o":"m 104 0 l 660 0 l 660 125 l 243 125 l 243 694 l 104 694 z "},"m":{"ha":903,"x_min":0,"x_max":0,"o":"m 229 694 l 104 694 l 104 0 l 243 0 l 243 486 l 246 486 b 285 408 246 486 260 442 l 382 278 l 521 278 l 618 408 b 657 486 643 442 657 486 l 660 486 l 660 0 l 799 0 l 799 694 l 674 694 l 457 403 l 447 403 z "},"n":{"ha":903,"x_min":0,"x_max":0,"o":"m 674 0 l 799 0 l 799 694 l 660 694 l 660 215 l 229 694 l 104 694 l 104 0 l 243 0 l 243 479 z "},"o":{"ha":861,"x_min":0,"x_max":0,"o":"m 431 708 b 69 347 222 708 69 556 b 431 -14 69 139 222 -14 b 792 347 639 -14 792 139 b 431 708 792 556 639 708 z m 431 118 b 215 347 306 118 215 215 b 431 576 215 479 306 576 b 646 347 556 576 646 479 b 431 118 646 215 556 118 z "},"p":{"ha":882,"x_min":0,"x_max":0,"o":"m 243 285 l 604 285 b 813 486 729 285 813 367 b 604 694 813 611 729 694 l 104 694 l 104 0 l 243 0 z m 243 569 l 604 569 b 674 500 646 569 674 542 l 674 479 b 604 410 674 438 646 410 l 243 410 z "},"q":{"ha":861,"x_min":0,"x_max":0,"o":"m 724 -21 l 799 54 l 724 129 b 792 347 767 188 792 263 b 431 708 792 556 639 708 b 69 347 222 708 69 556 b 431 -14 69 139 222 -14 b 649 54 515 -14 589 11 z m 550 153 b 431 118 517 131 475 118 b 215 347 306 118 215 215 b 431 576 215 479 306 576 b 646 347 556 576 646 479 b 619 232 646 304 636 265 l 538 315 l 463 240 z "},"r":{"ha":889,"x_min":0,"x_max":0,"o":"m 104 0 l 243 0 l 243 285 l 479 285 l 656 0 l 813 0 l 656 253 b 631 286 650 263 640 275 b 813 486 740 297 813 375 b 604 694 813 611 729 694 l 104 694 z m 243 410 l 243 569 l 604 569 b 674 500 646 569 674 542 l 674 479 b 604 410 674 438 646 410 z "},"s":{"ha":806,"x_min":0,"x_max":0,"o":"m 403 111 b 208 208 286 111 208 150 l 69 208 b 403 -14 69 75 203 -14 b 736 213 619 -14 736 65 b 410 417 736 354 639 417 b 222 490 278 417 222 438 b 403 583 222 551 285 583 b 583 486 511 583 583 544 l 722 486 b 403 708 722 619 594 708 b 83 490 194 708 83 632 b 397 292 83 350 178 292 b 597 213 536 292 597 268 b 403 111 597 147 529 111 z "},"t":{"ha":806,"x_min":0,"x_max":0,"o":"m 56 569 l 333 569 l 333 0 l 472 0 l 472 569 l 750 569 l 750 694 l 56 694 z "},"u":{"ha":875,"x_min":0,"x_max":0,"o":"m 438 118 b 243 333 325 118 243 208 l 243 694 l 104 694 l 104 333 b 438 -14 104 133 246 -14 b 771 333 629 -14 771 133 l 771 694 l 632 694 l 632 333 b 438 118 632 208 550 118 z "},"v":{"ha":861,"x_min":0,"x_max":0,"o":"m 42 694 l 326 0 l 535 0 l 819 694 l 672 694 l 439 125 l 425 125 l 192 694 z "},"w":{"ha":931,"x_min":0,"x_max":0,"o":"m 192 694 l 56 694 l 139 0 l 285 0 l 408 279 b 464 431 451 375 464 431 l 467 431 b 522 279 467 431 479 375 l 646 0 l 792 0 l 875 694 l 739 694 l 679 181 b 625 349 678 181 663 265 l 535 556 l 396 556 l 304 349 b 253 181 268 264 253 181 l 251 181 z "},"x":{"ha":876,"x_min":0,"x_max":0,"o":"m 525 360 l 814 694 l 639 694 l 440 458 l 236 694 l 63 694 l 350 360 l 42 0 l 215 0 l 435 261 l 660 0 l 835 0 z "},"y":{"ha":806,"x_min":0,"x_max":0,"o":"m 333 0 l 472 0 l 472 243 l 764 694 l 603 694 l 468 486 b 404 361 424 417 404 361 l 401 361 b 338 486 401 361 382 417 l 201 694 l 42 694 l 333 243 z "},"z":{"ha":847,"x_min":0,"x_max":0,"o":"m 97 569 l 547 569 l 83 111 l 83 0 l 764 0 l 764 125 l 285 125 l 750 583 l 750 694 l 97 694 z "},"Å":{"ha":861,"x_min":0,"x_max":0,"o":"m 42 0 l 189 0 l 246 139 l 613 139 l 669 0 l 819 0 l 535 694 l 326 694 z m 549 868 b 431 986 549 936 499 986 b 313 868 363 986 313 936 b 431 750 313 800 363 750 b 549 868 499 750 549 800 z m 297 264 l 422 569 l 436 569 l 561 264 z "},"Æ":{"ha":1018,"x_min":0,"x_max":0,"o":"m 488 139 l 528 0 l 914 0 l 914 125 l 639 125 l 593 285 l 775 285 l 775 410 l 557 410 l 511 569 l 914 569 l 914 694 l 242 694 l 42 0 l 186 0 l 226 139 z m 364 569 l 451 264 l 263 264 l 350 569 z "},"Ø":{"ha":874,"x_min":0,"x_max":0,"o":"m 69 54 l 144 -21 l 200 35 b 217 56 206 40 211 47 b 438 -14 276 11 353 -14 b 799 347 646 -14 799 139 b 729 567 799 432 774 507 b 749 585 736 574 743 579 l 804 640 l 731 715 l 675 660 b 657 639 668 654 663 647 b 438 708 597 683 522 708 b 76 347 228 708 76 556 b 144 128 76 263 101 188 b 125 110 138 121 131 115 z m 272 257 b 249 231 264 249 257 240 b 222 347 232 264 222 304 b 438 576 222 479 313 576 b 558 540 483 576 524 564 b 535 519 549 533 540 526 z m 653 347 b 438 118 653 215 561 118 b 317 154 392 118 350 131 b 340 175 325 161 333 168 l 603 438 b 625 464 610 446 618 454 b 653 347 643 431 653 390 z "},"å":{"ha":861,"x_min":0,"x_max":0,"o":"m 42 0 l 189 0 l 246 139 l 613 139 l 669 0 l 819 0 l 535 694 l 326 694 z m 549 868 b 431 986 549 936 499 986 b 313 868 363 986 313 936 b 431 750 313 800 363 750 b 549 868 499 750 549 800 z m 297 264 l 422 569 l 436 569 l 561 264 z "},"æ":{"ha":1018,"x_min":0,"x_max":0,"o":"m 488 139 l 528 0 l 914 0 l 914 125 l 639 125 l 593 285 l 775 285 l 775 410 l 557 410 l 511 569 l 914 569 l 914 694 l 242 694 l 42 0 l 186 0 l 226 139 z m 364 569 l 451 264 l 263 264 l 350 569 z "},"ø":{"ha":874,"x_min":0,"x_max":0,"o":"m 69 54 l 144 -21 l 200 35 b 217 56 206 40 211 47 b 438 -14 276 11 353 -14 b 799 347 646 -14 799 139 b 729 567 799 432 774 507 b 749 585 736 574 743 579 l 804 640 l 731 715 l 675 660 b 657 639 668 654 663 647 b 438 708 597 683 522 708 b 76 347 228 708 76 556 b 144 128 76 263 101 188 b 125 110 138 121 131 115 z m 272 257 b 249 231 264 249 257 240 b 222 347 232 264 222 304 b 438 576 222 479 313 576 b 558 540 483 576 524 564 b 535 519 549 533 540 526 z m 653 347 b 438 118 653 215 561 118 b 317 154 392 118 350 131 b 340 175 325 161 333 168 l 603 438 b 625 464 610 446 618 454 b 653 347 643 431 653 390 z "},".":{"ha":361,"x_min":0,"x_max":0,"o":"m 90 76 b 181 -14 90 22 126 -14 b 271 76 235 -14 271 22 b 181 167 271 131 235 167 b 90 76 126 167 90 131 z "},",":{"ha":361,"x_min":0,"x_max":0,"o":"m 90 76 b 154 -11 90 32 115 0 b 103 -107 135 -72 103 -107 l 151 -153 b 271 63 151 -153 271 -76 b 181 167 271 131 239 167 b 90 76 126 167 90 131 z "},":":{"ha":361,"x_min":0,"x_max":0,"o":"m 271 76 b 181 167 271 131 235 167 b 90 76 126 167 90 131 b 181 -14 90 22 126 -14 b 271 76 235 -14 271 22 z m 181 396 b 271 486 235 396 271 432 b 181 576 271 540 235 576 b 90 486 126 576 90 540 b 181 396 90 432 126 396 z "},";":{"ha":361,"x_min":0,"x_max":0,"o":"m 90 76 b 154 -11 90 32 115 0 b 103 -107 135 -72 103 -107 l 151 -153 b 271 63 151 -153 271 -76 b 181 167 271 131 239 167 b 90 76 126 167 90 131 z m 90 486 b 181 396 90 432 126 396 b 271 486 235 396 271 432 b 181 576 271 540 235 576 b 90 486 126 576 90 540 z "},"!":{"ha":361,"x_min":0,"x_max":0,"o":"m 111 556 b 139 243 111 382 139 243 l 222 243 b 250 556 222 243 250 382 l 250 694 l 111 694 z m 271 76 b 181 167 271 131 235 167 b 90 76 126 167 90 131 b 181 -14 90 22 126 -14 b 271 76 235 -14 271 22 z "},"?":{"ha":806,"x_min":0,"x_max":0,"o":"m 403 708 b 69 486 203 708 69 619 l 208 486 b 403 583 208 544 286 583 b 597 490 529 583 597 551 b 403 417 597 438 539 417 l 333 417 l 333 347 b 361 243 333 313 361 243 l 444 243 b 463 293 444 243 454 267 b 736 490 654 303 736 363 b 403 708 736 632 619 708 z m 403 167 b 313 76 349 167 313 131 b 403 -14 313 22 349 -14 b 493 76 457 -14 493 22 b 403 167 493 131 457 167 z "},"•":{"ha":417,"x_min":0,"x_max":0,"o":"m 69 347 b 208 208 69 264 125 208 b 347 347 292 208 347 264 b 208 486 347 431 292 486 b 69 347 125 486 69 431 z "},"‘":{"ha":319,"x_min":0,"x_max":0,"o":"m 250 479 b 186 567 250 524 225 556 b 238 663 206 628 238 663 l 189 708 b 69 493 189 708 69 632 b 160 389 69 431 106 389 b 250 479 214 389 250 425 z "},"’":{"ha":319,"x_min":0,"x_max":0,"o":"m 69 618 b 133 531 69 574 94 542 b 82 435 114 469 82 435 l 131 389 b 250 604 131 389 250 465 b 160 708 250 667 214 708 b 69 618 106 708 69 672 z "},"“":{"ha":597,"x_min":0,"x_max":0,"o":"m 250 479 b 186 567 250 524 225 556 b 238 663 206 628 238 663 l 189 708 b 69 493 189 708 69 632 b 160 389 69 431 106 389 b 250 479 214 389 250 425 z m 528 479 b 464 567 528 524 503 556 b 515 663 483 628 515 663 l 467 708 b 347 493 467 708 347 632 b 438 389 347 431 383 389 b 528 479 492 389 528 425 z "},"”":{"ha":597,"x_min":0,"x_max":0,"o":"m 69 618 b 133 531 69 574 94 542 b 82 435 114 469 82 435 l 131 389 b 250 604 131 389 250 465 b 160 708 250 665 214 708 b 69 618 106 708 69 672 z m 347 618 b 411 531 347 574 372 542 b 360 435 392 469 360 435 l 408 389 b 528 604 408 389 528 465 b 438 708 528 665 492 708 b 347 618 383 708 347 672 z "},"‚":{"ha":319,"x_min":0,"x_max":0,"o":"m 69 208 b 133 121 69 164 94 132 b 82 25 114 60 82 25 l 131 -21 b 250 194 131 -21 250 56 b 160 299 250 257 214 299 b 69 208 106 299 69 263 z "},"„":{"ha":597,"x_min":0,"x_max":0,"o":"m 69 208 b 133 121 69 164 94 132 b 82 25 114 60 82 25 l 131 -21 b 250 194 131 -21 250 56 b 160 299 250 256 214 299 b 69 208 106 299 69 263 z m 347 208 b 411 121 347 164 372 132 b 360 25 392 60 360 25 l 408 -21 b 528 194 408 -21 528 56 b 438 299 528 256 492 299 b 347 208 383 299 347 263 z "},"'":{"ha":319,"x_min":0,"x_max":0,"o":"m 90 590 b 118 417 90 486 118 417 l 201 417 b 229 590 201 417 229 486 l 229 694 l 90 694 z "},"\"":{"ha":528,"x_min":0,"x_max":0,"o":"m 299 590 b 326 417 299 486 326 417 l 410 417 b 438 590 410 417 438 486 l 438 694 l 299 694 z m 201 417 b 229 590 201 417 229 486 l 229 694 l 90 694 l 90 590 b 118 417 90 486 118 417 z "},"(":{"ha":371,"x_min":0,"x_max":0,"o":"m 235 850 b 69 347 235 850 69 671 b 235 -156 69 24 235 -156 l 336 -87 b 208 347 336 -87 208 79 b 336 782 208 615 336 782 z "},")":{"ha":371,"x_min":0,"x_max":0,"o":"m 35 782 b 163 347 35 782 163 615 b 35 -87 163 79 35 -87 l 136 -156 b 301 347 136 -156 301 24 b 136 850 301 671 136 850 z "},"[":{"ha":411,"x_min":0,"x_max":0,"o":"m 347 -139 l 347 -14 l 243 -14 l 243 708 l 347 708 l 347 833 l 104 833 l 104 -139 z "},"]":{"ha":411,"x_min":0,"x_max":0,"o":"m 63 833 l 63 708 l 168 708 l 167 -14 l 63 -14 l 64 -139 l 306 -139 l 306 833 z "},"{":{"ha":446,"x_min":0,"x_max":0,"o":"m 35 410 l 35 285 l 69 285 b 139 215 111 285 139 257 l 139 69 b 347 -139 139 -56 222 -139 l 382 -139 l 382 -14 l 347 -14 b 278 50 306 -14 278 11 l 278 188 b 197 347 278 257 249 314 b 278 507 249 381 278 438 l 278 644 b 347 708 278 683 306 708 l 382 708 l 382 833 l 347 833 b 139 625 222 833 139 750 l 139 479 b 69 410 139 438 111 410 z "},"}":{"ha":444,"x_min":0,"x_max":0,"o":"m 97 708 b 167 644 139 708 167 683 l 167 507 b 249 347 167 438 197 381 b 167 188 197 314 167 257 l 167 50 b 97 -14 167 11 139 -14 l 63 -14 l 63 -139 l 97 -139 b 306 69 222 -139 306 -56 l 306 215 b 375 285 306 257 333 285 l 410 285 l 410 410 l 375 410 b 306 479 333 410 306 438 l 306 625 b 97 833 306 750 222 833 l 63 833 l 63 708 z "},"@":{"ha":1139,"x_min":0,"x_max":0,"o":"m 567 722 b 915 417 774 722 915 599 b 740 238 915 308 846 238 l 739 240 b 792 347 776 261 792 307 b 569 569 792 481 703 569 b 347 347 436 569 347 481 b 567 125 347 214 436 125 l 736 125 b 1064 417 935 125 1064 240 b 565 847 1064 675 865 847 b 69 347 267 847 69 649 b 628 -153 69 47 293 -153 b 915 -75 817 -153 915 -75 l 856 24 b 626 -28 856 24 779 -28 b 215 347 379 -28 215 122 b 567 722 215 572 356 722 z m 569 438 b 646 347 621 438 646 394 b 569 257 646 300 621 257 b 493 347 518 257 493 301 b 569 438 493 394 518 438 z "},"&":{"ha":778,"x_min":0,"x_max":0,"o":"m 368 708 b 90 500 190 708 90 633 b 178 351 90 435 126 376 b 69 194 113 326 69 267 b 368 -14 69 61 178 -14 b 667 229 549 -14 667 82 b 663 285 667 246 665 265 l 743 285 l 743 410 l 361 410 b 236 493 279 410 236 439 b 368 576 236 547 282 576 b 500 493 454 576 500 547 l 646 493 b 368 708 646 632 547 708 z m 215 201 b 361 285 215 256 265 285 l 521 285 l 521 229 b 368 118 521 163 460 118 b 215 201 269 118 215 147 z "},"€":{"ha":804,"x_min":0,"x_max":0,"o":"m 108 410 l 35 410 l 35 285 l 108 285 b 465 -14 136 108 278 -14 b 749 115 583 -14 685 35 l 639 206 b 465 118 600 151 539 118 b 257 285 361 118 281 186 l 590 285 l 590 410 l 257 410 b 465 576 281 510 361 576 b 639 489 539 576 600 543 l 749 579 b 465 708 685 660 583 708 b 108 410 278 708 136 586 z "},"*":{"ha":549,"x_min":0,"x_max":0,"o":"m 118 340 l 196 385 b 242 433 214 396 242 433 l 244 432 b 225 368 244 432 225 389 l 225 278 l 322 278 l 322 368 b 304 432 322 389 304 432 l 307 433 b 353 385 307 433 335 396 l 431 340 l 479 425 l 401 469 b 336 485 383 479 336 485 l 336 488 b 401 504 336 488 383 493 l 479 549 l 431 633 l 353 588 b 307 540 335 578 307 540 l 304 542 b 322 606 304 542 322 585 l 322 694 l 225 694 l 225 606 b 244 542 225 585 244 542 l 242 540 b 196 589 240 540 214 578 l 118 633 l 69 549 l 147 504 b 213 488 165 493 213 488 l 213 485 b 147 469 211 485 165 479 l 69 425 z "},"%":{"ha":1069,"x_min":0,"x_max":0,"o":"m 486 569 b 278 778 486 692 400 778 b 69 569 157 778 69 690 b 278 361 69 446 154 361 b 486 569 403 361 486 444 z m 792 -83 b 1000 125 917 -83 1000 0 b 792 333 1000 247 914 333 b 583 125 671 333 583 246 b 792 -83 583 1 668 -83 z m 769 668 l 214 113 l 300 26 l 856 582 z m 708 125 b 792 215 708 179 742 215 b 875 125 842 215 875 181 b 792 35 875 71 843 35 b 708 125 742 35 708 69 z m 278 660 b 361 569 328 660 361 625 b 278 479 361 515 329 479 b 194 569 228 479 194 514 b 278 660 194 624 228 660 z "},"#":{"ha":903,"x_min":0,"x_max":0,"o":"m 450 0 l 578 0 l 608 153 l 743 153 l 743 264 l 631 264 l 664 431 l 799 431 l 799 542 l 686 542 l 717 694 l 589 694 l 558 542 l 394 542 l 425 694 l 297 694 l 267 542 l 132 542 l 132 431 l 244 431 l 211 264 l 76 264 l 76 153 l 189 153 l 158 0 l 286 0 l 317 153 l 481 153 z m 536 431 l 503 264 l 339 264 l 372 431 z "},"−":{"ha":764,"x_min":0,"x_max":0,"o":"m 104 285 l 660 285 l 660 410 l 104 410 z "},"+":{"ha":764,"x_min":0,"x_max":0,"o":"m 313 69 l 451 69 l 451 285 l 660 285 l 660 410 l 451 410 l 451 625 l 313 625 l 313 410 l 104 410 l 104 285 l 313 285 z "},"×":{"ha":736,"x_min":0,"x_max":0,"o":"m 646 532 l 553 625 l 368 440 l 183 625 l 90 532 l 275 347 l 90 164 l 183 69 l 368 254 l 553 69 l 646 163 l 461 347 z "},"÷":{"ha":764,"x_min":0,"x_max":0,"o":"m 660 410 l 104 410 l 104 285 l 660 285 z m 382 639 b 299 556 335 639 299 603 b 382 472 299 508 335 472 b 465 556 429 472 465 508 b 382 639 465 603 429 639 z m 382 222 b 299 139 335 222 299 186 b 382 56 299 92 335 56 b 465 139 429 56 465 92 b 382 222 465 186 429 222 z "},"=":{"ha":764,"x_min":0,"x_max":0,"o":"m 660 271 l 104 271 l 104 146 l 660 146 z m 104 424 l 660 424 l 660 549 l 104 549 z "},"°":{"ha":606,"x_min":0,"x_max":0,"o":"m 303 708 b 69 486 164 708 69 618 b 303 264 69 354 164 264 b 536 486 442 264 536 354 b 303 708 536 619 443 708 z m 303 389 b 208 486 247 389 208 428 b 303 583 208 544 247 583 b 397 486 360 583 397 544 b 303 389 397 428 358 389 z "},"|":{"ha":347,"x_min":0,"x_max":0,"o":"m 104 -139 l 243 -139 l 243 835 l 104 833 z "},"/":{"ha":640,"x_min":0,"x_max":0,"o":"m 168 -97 l 585 736 l 472 792 l 56 -42 z "},"\\":{"ha":640,"x_min":0,"x_max":0,"o":"m 56 736 l 472 -97 l 585 -42 l 168 792 z "},"-":{"ha":694,"x_min":0,"x_max":0,"o":"m 104 285 l 590 285 l 590 410 l 104 410 z "},"_":{"ha":694,"x_min":0,"x_max":0,"o":"m 104 -132 l 590 -132 l 590 -7 l 104 -7 z "},"–":{"ha":1111,"x_min":0,"x_max":0,"o":"m 104 285 l 1007 285 l 1007 410 l 104 410 z "},"—":{"ha":1389,"x_min":0,"x_max":0,"o":"m 104 285 l 1285 285 l 1285 410 l 104 410 z "}}}
